G04*
G04 #@! TF.GenerationSoftware,Altium Limited,Altium Designer,22.5.1 (42)*
G04*
G04 Layer_Physical_Order=2*
G04 Layer_Color=16711680*
%FSLAX44Y44*%
%MOMM*%
G71*
G04*
G04 #@! TF.SameCoordinates,6C1A66E1-8821-4F1E-8935-C086ED52FD5F*
G04*
G04*
G04 #@! TF.FilePolarity,Positive*
G04*
G01*
G75*
%ADD12C,0.2540*%
%ADD18C,0.3500*%
%ADD19C,3.2000*%
%ADD20C,1.5240*%
%ADD21C,0.7000*%
%ADD22R,1.2500X1.0000*%
D12*
X112250Y87750D02*
X113457D01*
D18*
X120250Y54750D02*
X172000D01*
X113457Y87490D02*
Y87750D01*
X114127Y87080D02*
X116207Y85000D01*
X113457Y87490D02*
X113867Y87080D01*
X116207Y85000D02*
X152000D01*
X113867Y87080D02*
X114127D01*
X194250Y91000D02*
X245000D01*
X174500Y71250D02*
X194250Y91000D01*
X159000Y71250D02*
X172000D01*
X154500Y66750D02*
X159000Y71250D01*
X99750Y75250D02*
X120250Y54750D01*
X172000Y71250D02*
X174500D01*
X152000Y66750D02*
X154500D01*
D19*
X245000Y91000D02*
D03*
D20*
X315000Y25000D02*
D03*
Y115000D02*
D03*
X-5000D02*
D03*
Y25000D02*
D03*
D21*
X99750Y75250D02*
D03*
X112250Y87750D02*
D03*
D22*
X172000Y73000D02*
D03*
X152000Y65000D02*
D03*
X172000Y53000D02*
D03*
X152000Y85000D02*
D03*
M02*
