G04*
G04 #@! TF.GenerationSoftware,Altium Limited,Altium Designer,22.5.1 (42)*
G04*
G04 Layer_Physical_Order=2*
G04 Layer_Color=16711680*
%FSLAX44Y44*%
%MOMM*%
G71*
G04*
G04 #@! TF.SameCoordinates,8F6CD75C-12F9-44A4-8B14-4AFE5C5DE420*
G04*
G04*
G04 #@! TF.FilePolarity,Positive*
G04*
G01*
G75*
%ADD19C,0.8000*%
%ADD20C,3.8000*%
%ADD21C,1.5240*%
%ADD22C,0.9000*%
%ADD23C,0.8000*%
%ADD24R,1.2500X1.0000*%
%ADD25C,0.3500*%
D19*
X124875Y87625D02*
X125146D01*
X127771Y85000D02*
X152000D01*
X112563Y87563D02*
X124812D01*
X124875Y87625D01*
X125146D02*
X127771Y85000D01*
X100125Y87375D02*
X100188Y87437D01*
X112437D02*
X112563Y87563D01*
X100188Y87437D02*
X112437D01*
X112500Y74831D02*
X134331Y53000D01*
X172000D01*
X87500Y75000D02*
X112331D01*
X112500Y74831D01*
X209750Y92250D02*
X243750D01*
X190500Y73000D02*
X209750Y92250D01*
X172000Y73000D02*
X190500D01*
X170750D02*
X172000D01*
X243750Y92250D02*
X245000Y91000D01*
X153000Y66000D02*
X163750D01*
X170750Y73000D01*
X152000Y65000D02*
X153000Y66000D01*
D20*
X245000Y91000D02*
D03*
Y47500D02*
D03*
D21*
X315000Y25000D02*
D03*
Y115000D02*
D03*
X-5000D02*
D03*
Y25000D02*
D03*
D22*
X112500Y87500D02*
D03*
X124875Y87625D02*
D03*
X100125Y87375D02*
D03*
D23*
X99915Y75000D02*
D03*
X112500Y74831D02*
D03*
X87500Y75000D02*
D03*
D24*
X172000Y73000D02*
D03*
X152000Y65000D02*
D03*
X172000Y53000D02*
D03*
X152000Y85000D02*
D03*
D25*
Y66750D02*
X154500D01*
M02*
