G04*
G04 #@! TF.GenerationSoftware,Altium Limited,Altium Designer,22.5.1 (42)*
G04*
G04 Layer_Physical_Order=1*
G04 Layer_Color=255*
%FSLAX44Y44*%
%MOMM*%
G71*
G04*
G04 #@! TF.SameCoordinates,57A0546F-C19F-4D55-9909-ACA7FCB6A21B*
G04*
G04*
G04 #@! TF.FilePolarity,Positive*
G04*
G01*
G75*
%ADD11C,0.2000*%
%ADD15R,1.3000X0.8000*%
%ADD16R,3.0000X2.1000*%
%ADD20C,0.8000*%
%ADD21C,3.8000*%
%ADD22C,4.0000*%
%ADD23C,0.8000*%
G36*
X-20000Y32750D02*
X-80000D01*
Y53750D01*
X-20000D01*
Y32750D01*
D02*
G37*
G36*
X28699Y24543D02*
X29543Y23699D01*
X30000Y22597D01*
Y22000D01*
Y4000D01*
Y3403D01*
X29543Y2301D01*
X28699Y1457D01*
X27597Y1000D01*
X-72597D01*
X-73699Y1457D01*
X-74543Y2301D01*
X-75000Y3403D01*
Y4000D01*
Y20000D01*
Y22000D01*
Y22597D01*
X-74543Y23699D01*
X-73699Y24543D01*
X-72597Y25000D01*
X27597D01*
X28699Y24543D01*
D02*
G37*
G36*
Y-3457D02*
X29543Y-4301D01*
X30000Y-5403D01*
Y-6000D01*
Y-24000D01*
Y-24597D01*
X29543Y-25699D01*
X28699Y-26543D01*
X27597Y-27000D01*
X-72597D01*
X-73699Y-26543D01*
X-74543Y-25699D01*
X-75000Y-24597D01*
Y-24000D01*
Y-8000D01*
Y-6000D01*
Y-5403D01*
X-74543Y-4301D01*
X-73699Y-3457D01*
X-72597Y-3000D01*
X27597D01*
X28699Y-3457D01*
D02*
G37*
G36*
X-20000Y-55750D02*
X-80000D01*
Y-34750D01*
X-20000D01*
Y-55750D01*
D02*
G37*
D11*
X137500Y-17500D02*
X167500D01*
X140000Y-12500D02*
X147500D01*
X150000Y-10000D02*
Y-2500D01*
X137500Y-10000D02*
Y-2500D01*
X157500Y12500D02*
X165000D01*
X155000Y2500D02*
Y10000D01*
X140000Y-0D02*
X147500D01*
X150000Y2500D02*
Y10000D01*
X155000Y-10000D02*
Y-2500D01*
X137500Y2500D02*
Y10000D01*
X140000Y12500D02*
X147500D01*
X157500Y-12500D02*
X165000D01*
X167500Y2500D02*
Y10000D01*
Y-10000D02*
Y-2500D01*
X157500Y-0D02*
X165000D01*
X13000Y62998D02*
Y56000D01*
Y58333D01*
X17665Y62998D01*
X14166Y59499D01*
X17665Y56000D01*
X24663Y61831D02*
X23497Y62998D01*
X21164D01*
X19998Y61831D01*
Y60665D01*
X21164Y59499D01*
X23497D01*
X24663Y58333D01*
Y57166D01*
X23497Y56000D01*
X21164D01*
X19998Y57166D01*
X31661Y61831D02*
X30494Y62998D01*
X28162D01*
X26995Y61831D01*
Y57166D01*
X28162Y56000D01*
X30494D01*
X31661Y57166D01*
Y59499D01*
X29328D01*
X33993Y54834D02*
X38658D01*
X40991Y56000D02*
Y62998D01*
X44490D01*
X45656Y61831D01*
Y59499D01*
X44490Y58333D01*
X40991D01*
X43324D02*
X45656Y56000D01*
X52654Y62998D02*
X47989D01*
Y56000D01*
X52654D01*
X47989Y59499D02*
X50321D01*
X59652Y62998D02*
X54987D01*
Y59499D01*
X57319D01*
X54987D01*
Y56000D01*
X61984Y62998D02*
Y56000D01*
X66649D01*
X72481Y62998D02*
X70148D01*
X68982Y61831D01*
Y57166D01*
X70148Y56000D01*
X72481D01*
X73647Y57166D01*
Y61831D01*
X72481Y62998D01*
X75980D02*
Y56000D01*
X78312Y58333D01*
X80645Y56000D01*
Y62998D01*
X82978Y54834D02*
X87643D01*
X89975Y62998D02*
Y58333D01*
X92308Y56000D01*
X94640Y58333D01*
Y62998D01*
X96973Y56000D02*
X99306D01*
X98139D01*
Y62998D01*
X96973Y61831D01*
X102804Y54834D02*
X107470D01*
X109802Y61831D02*
X110969Y62998D01*
X113301D01*
X114467Y61831D01*
Y57166D01*
X113301Y56000D01*
X110969D01*
X109802Y57166D01*
Y61831D01*
X116800D02*
X117966Y62998D01*
X120299D01*
X121465Y61831D01*
Y60665D01*
X120299Y59499D01*
X121465Y58333D01*
Y57166D01*
X120299Y56000D01*
X117966D01*
X116800Y57166D01*
Y58333D01*
X117966Y59499D01*
X116800Y60665D01*
Y61831D01*
X117966Y59499D02*
X120299D01*
X128463Y56000D02*
X123798D01*
X128463Y60665D01*
Y61831D01*
X127297Y62998D01*
X124964D01*
X123798Y61831D01*
X135461Y62998D02*
X130795D01*
Y59499D01*
X133128Y60665D01*
X134294D01*
X135461Y59499D01*
Y57166D01*
X134294Y56000D01*
X131962D01*
X130795Y57166D01*
D15*
X20000Y17750D02*
D03*
Y5250D02*
D03*
Y-7250D02*
D03*
Y-19750D02*
D03*
X-65000D02*
D03*
Y5250D02*
D03*
Y17750D02*
D03*
Y-7250D02*
D03*
D16*
X-7500Y-45250D02*
D03*
Y43250D02*
D03*
X-92500D02*
D03*
Y-45250D02*
D03*
D20*
X112500Y-45000D02*
X160000D01*
X90000Y-22500D02*
X112500Y-45000D01*
X114000Y45000D02*
X160000D01*
X90000Y21000D02*
X114000Y45000D01*
X-7500Y43250D02*
X67750D01*
X90000Y21000D01*
X-7500Y-45250D02*
X67250D01*
X90000Y-22500D01*
X-160000Y-45000D02*
X-159750Y-45250D01*
X-92500D01*
X-160000Y-45000D02*
Y45000D01*
X-158250Y43250D01*
X-92500D01*
D21*
X90000Y-22500D02*
D03*
Y21000D02*
D03*
D22*
X160000Y-45000D02*
D03*
Y45000D02*
D03*
X-160000D02*
D03*
Y-45000D02*
D03*
D23*
X-23000Y15000D02*
D03*
X-39000D02*
D03*
X-39000Y23250D02*
D03*
X-31000Y15000D02*
D03*
X-55000D02*
D03*
X-31000Y23250D02*
D03*
X-47000Y15000D02*
D03*
X-55000Y23250D02*
D03*
X-47000D02*
D03*
X-23000D02*
D03*
X-23000Y-22000D02*
D03*
X-31000D02*
D03*
X-39000D02*
D03*
X-47000D02*
D03*
X-55000D02*
D03*
Y-14000D02*
D03*
X-47000D02*
D03*
X-39000D02*
D03*
X-31000D02*
D03*
X-23000D02*
D03*
M02*
