M48
;Layer_Color=9474304
;FILE_FORMAT=4:3
METRIC,TZ
;TYPE=PLATED
T1F00S00C0.400
T2F00S00C2.100
T3F00S00C2.300
%
T01
X-5500Y-2200
X-4700
X-3900
X-3100
X-2300
Y-1400
X-3100
X-3900
X-4700
X-5500
Y1500
X-4700
X-3900
X-3100
X-2300
X-2300Y2325
X-3100
X-3900
X-4700
X-5500
T02
X9000Y-2250
Y2100
T03
X-16000Y-4500
X16000
Y4500
X-16000
M30
